<svg width="24" height="16" viewBox="0 0 24 16" fill="none" xmlns="http://www.w3.org/2000/svg">
<path fill-rule="evenodd" clip-rule="evenodd" d="M8.46808 11.3191H10.1277L8.46808 7.91489V11.3191ZM8.46808 14.8511V12.2979C8.76596 12.0425 9.14893 11.8723 9.57447 11.8723C10.5106 11.8723 11.2766 12.6383 11.2766 13.5745C11.2766 14.5106 10.5106 15.2766 9.57447 15.2766C9.14893 15.2766 8.76596 15.1489 8.46808 14.8511ZM8.46808 3.40425V0H14H22.3404V0C23.1057 0 23.611 0.800947 23.2766 1.48936V1.48936L22.9787 2.04255L20.8936 6.21276L20.0426 7.95744L19.1064 6.12766L18.8936 5.70212L20.7234 2.04255H14.6808L15.617 3.82979L19.4894 11.3191H17.1489L12.3404 2.04255H10.0851L14.6383 11.3191H12.383L8.46808 3.40425ZM18.2979 11.9149C19.234 11.9149 20 12.6808 20 13.617C20 14.5532 19.234 15.3191 18.2979 15.3191C17.3617 15.3191 16.5957 14.5532 16.5957 13.617C16.5957 12.6808 17.3617 11.9149 18.2979 11.9149ZM1.02128 2.04255H3.2766L7.82979 11.3191H8.42553V7.91489L7.82979 6.68085L4.7757 0.533528C4.61332 0.206686 4.27985 0 3.91489 0V0H2.25532H0L1.02128 2.04255ZM8.46808 0V3.40425L7.53192 1.48936V1.48936C7.19754 0.800947 7.70276 0 8.46808 0V0ZM8.46808 12.3404V14.8936C8.12766 14.5957 7.87234 14.1277 7.87234 13.617C7.87234 13.1064 8.08511 12.6383 8.46808 12.3404Z" fill="white"/>
</svg>